<svg xmlns="http://www.w3.org/2000/svg" viewBox="0 0 427.33 118.49">
    <path d="M102.1,66.68c-0.48-1.11-1.74-.75-2.7-0.75-9.5,0-19-.06-28.49,0-2.08,0-2.67-.6-2.65-2.7,0.12-9,0-18,.05-27,0-8.83,0-17.66,0-26.5,0-1,.52-2.5-0.6-3s-1.8.88-2.53,1.6Q58,15.52,50.86,22.71,30.65,42.95,10.45,63.2c-0.74.74-2,1.53-1.59,2.58s1.87,0.78,2.95.79h1.5c8.83,0,17.66.07,26.49-.05,2.21,0,2.83.62,2.82,2.82-0.08,17.33,0,34.66,0,52,0,0.67,0,1.33,0,2a1.8,1.8,0,0,0,.79,1.73c0.82,0.4,1.42-.16,2-0.67s0.95-.94,1.42-1.41q26.94-27,53.86-54C101.31,68.38,102.62,67.88,102.1,66.68Zm-3,2.14Q72.87,95.1,46.61,121.34c-0.51.51-1,1.47-1.74,1.22-1-.34-0.52-1.45-0.52-2.22q-0.06-20.75-.06-41.5a1.78,1.78,0,0,1-.74-0.56,81.13,81.13,0,0,1-.09-10.9,1.24,1.24,0,0,1,1.45-1.08q10.8,0.05,21.59.14a1,1,0,0,1,.4.27H100C100.41,68,99.57,68.35,99.1,68.82Z" transform="translate(-8.77 -6.7)" style="fill:#01c7dc" />
    <path d="M66.9,66.71H100c0.4,1.27-.44,1.63-0.91,2.11Q72.87,95.1,46.61,121.34c-0.51.51-1,1.47-1.74,1.22-1-.34-0.52-1.45-0.52-2.22q-0.06-20.75-.05-41.5c5.11-3,10.58-5.29,15.77-8.1C62.38,69.48,65.14,68.92,66.9,66.71Z" transform="translate(-8.77 -6.7)" style="fill:#029bb5" />
    <path d="M66.9,66.71c-1.76,2.21-4.52,2.77-6.84,4-5.19,2.82-10.66,5.11-15.77,8.1a1.78,1.78,0,0,1-.74-0.56,81.13,81.13,0,0,1-.09-10.9,1.24,1.24,0,0,1,1.45-1.08q10.8,0.05,21.59.14A1,1,0,0,1,66.9,66.71Z" transform="translate(-8.77 -6.7)" style="fill:#428b97" />
    <path d="M146.34,77.28c0-7.5,0-15,0-22.48,0-2,.42-3.19,2.79-2.86a19.7,19.7,0,0,0,4.24,0c2.15-.17,2.8,1,2.79,2.85,0,3.58-.07,7.16-0.06,10.74,0,1-.29,2.09.78,2.71s1.9-.32,2.7-0.78c4.61-2.67,9.32-3.56,14.48-1.56a9.2,9.2,0,0,1,6.15,8.28c0.81,8.71.47,17.46,0.24,26.19a1.63,1.63,0,0,1-1.85,1.81h-0.25c-7.79.63-7.79,0.63-7.79-7.09,0-4.91-.14-9.83,0-14.74,0.21-6.74-5.82-7.68-10.15-6-3.1,1.22-4.59,3.32-4.41,6.93,0.3,6.06.05,12.16,0.16,18.23,0,2-.76,2.63-2.65,2.67-7.16.15-7.16,0.18-7.16-7Q146.34,86.27,146.34,77.28Z" transform="translate(-8.77 -6.7)" style="fill:#0c0c0c" />
    <path d="M225.88,84.18c0,11-8.09,18.87-19.24,18.79s-19.09-8-18.94-19.05c0.16-11.59,8.3-18.81,19.2-18.86S225.93,73.24,225.88,84.18Zm-10.31-.65a17.88,17.88,0,0,0-.2-2.46c-1.06-5.5-7.58-9.47-13-6-4.88,3.08-5.9,10.74-2.7,15.54,2.66,4,6.55,5,10.87,2.93C214.49,91.64,215.58,88.12,215.57,83.52Z" transform="translate(-8.77 -6.7)" style="fill:#0c0c0c" />
    <path d="M266.85,84.44c0,5-.12,10,0.06,15,0.09,2.41-.8,3.15-3,2.91a24.29,24.29,0,0,0-3.5,0c-1.69.07-3.11,0.11-3.1-2.35,0-1.54-1.09-1-1.91-.39a16.74,16.74,0,0,1-15.31,2.82c-3.33-1-6.53-4.14-6.62-7.63-0.23-9-.17-18-0.24-27,0-1.34.72-1.7,1.91-1.67,1.75,0,3.51.1,5.25,0s2.27,0.7,2.26,2.38q-0.11,8.87,0,17.75c0,3.23.31,6.4,3.95,7.87,2.89,1.17,7.29,0,9.89-2.59,1-1,.91-2.09.91-3.24,0-6.58.06-13.17,0-19.75,0-1.88.61-2.42,2.45-2.42,7.11,0,7.11-.06,7.11,7.08Q266.85,78.82,266.85,84.44Z" transform="translate(-8.77 -6.7)" style="fill:#0c0c0c" />
    <path d="M392.68,64.87a25.59,25.59,0,0,1,14.15,4.22,1.31,1.31,0,0,1,.59,2c-0.76,1.47-1.5,3-2.38,4.36-0.72,1.16-1.57.81-2.49,0.06-2.2-1.77-4.9-2.35-7.58-2.95a6.45,6.45,0,0,0-5,1c-0.93.58-2.05,1.07-1.87,2.38a2.93,2.93,0,0,0,2.44,2.24c2.48,0.68,5,1.17,7.52,1.73A17.09,17.09,0,0,1,406,83.68c5.15,4.66,4.1,13-2.16,17-3.64,2.28-7.79,2.75-12,2.38a25.26,25.26,0,0,1-12.19-3.81c-1.39-.93-2.76-1.64-1-3.92,2.92-3.81,2.68-4,7.08-2,3.44,1.56,6.93,2.82,10.79,1.88,1.68-.41,3.32-1.14,3.29-3.18s-1.88-2.67-3.27-2.89c-2.72-.44-5.31-1.35-8-1.93-3.09-.67-6.11-1.9-8-4.57-4.12-5.65-1.2-14,5.55-16.23C388.46,65.55,390.87,64.49,392.68,64.87Z" transform="translate(-8.77 -6.7)" style="fill:#0c0c0c" />
    <path d="M122.21,64.94c5.79,0.24,10.22,1.41,14.17,4.11a1.63,1.63,0,0,1,1,1.28c0,0.83-2.57,5.3-3.32,5.73s-1.18-.33-1.68-0.65a17.16,17.16,0,0,0-9.35-3,5.7,5.7,0,0,0-3.09.84c-1.08.66-2.34,1.26-2,2.8,0.31,1.35,1.47,1.87,2.74,2.24,3.42,1,7,1.49,10.34,2.75,5.52,2,8,5.32,7.84,11-0.12,4.53-3.68,8.88-8.6,10.1-7,1.75-13.85,1.15-20.19-2.65-2.81-1.68-2.82-1.79-1.3-4.52,0.12-.22.21-0.45,0.34-0.67,2-3.34,2-3.33,5.41-1.38a19.2,19.2,0,0,0,8.76,2.6,12.51,12.51,0,0,0,3.21-.33c1.75-.39,3.19-1.32,3.16-3.3S128,89.45,126.62,89c-2.45-.75-5-1.16-7.52-1.75-3.29-.78-6.43-2-8.58-4.7-4.28-5.38-1.39-13.92,5.44-16.2C118.31,65.61,120.69,64.7,122.21,64.94Z" transform="translate(-8.77 -6.7)" style="fill:#0c0c0c" />
    <path d="M371.19,88.48c0,4.39,0,7.89,0,11.38,0,1.55-.51,2.34-2.15,2.3-1.83,0-3.66,0-5.49,0-0.77,0-1.6-.13-1.79-1-0.5-2.37-1.51-1.45-2.79-.62-5.73,3.71-13.44,3.21-18-1.19-3.83-3.7-4-8.35-2.45-12.94,1.41-4.07,4.82-6.17,9.14-6.66s8.44-.12,12.1,2.58c1.19,0.88,1.59,0,1.67-1.09,0.47-6.54-3.58-8.91-10-8.12a13.81,13.81,0,0,0-6.85,2.77,1.6,1.6,0,0,1-1.08.46c-2.1-.68-2.31-2.9-3.34-4.43-0.66-1,.35-1.83,1.15-2.46,6.26-4.9,17.22-5.73,24.09-1.84,3.69,2.09,5,5.62,5.55,9.51C371.53,81.2,371,85.3,371.19,88.48Zm-16.62,8.07a13.07,13.07,0,0,0,2.88-.47c1.87-.67,3.76-1.5,4-3.9,0.15-1.78.13-3.61-1.62-4.64A10.61,10.61,0,0,0,352.41,86c-3.54.63-5.7,3.55-4.94,6.72C348,95.11,350.54,96.56,354.57,96.54Z" transform="translate(-8.77 -6.7)" style="fill:#0c0c0c" />
    <path d="M428.32,83.85c0,2.17,0,4.33,0,6.5,0.07,2.76,1.18,4,3.84,3.64s3.36,0.83,3.65,3.1c0.58,4.54.68,4.78-3.64,5.57-8.95,1.65-13.59-2.12-14-10.72-0.23-4.74-.1-9.5,0-14.24,0.06-2.33-.68-3.53-3.14-3.17-2.26.33-3-.84-2.94-2.88,0-.58,0-1.17,0-1.75,0-3.74,0-3.8,3.71-3.93,1.57-.06,2.31-0.68,2.28-2.24,0-1.83,0-3.67-.07-5.5a1.94,1.94,0,0,1,2.18-2.35c2.08,0,4.16,0,6.25,0a1.57,1.57,0,0,1,1.77,1.87c0,1.92.06,3.83,0,5.75s0.62,2.49,2.49,2.5c4.92,0,4.92.09,4.93,5.1,0,3.45,0,3.45-3.42,3.43-3.94,0-4,0-4,4.08q0,2.62,0,5.25h0Z" transform="translate(-8.77 -6.7)" style="fill:#0c0c0c" />
    <path d="M309.87,84c0,6.12,4.6,10.86,10.16,10.55a8.72,8.72,0,0,0,5.59-2.46c1.18-1.11,2.21-.88,3.26.08,0.25,0.22.43,0.51,0.67,0.74,3.91,3.67,3.73,5.31-1,7.71-8,4-19.53,2.67-25.13-5.35-6.34-9.08-3.85-26.08,10.53-29.33,6.31-1.43,12-.58,17.18,3.48,1.93,1.53,1.93,2.55.08,4.22-0.25.22-.52,0.42-0.76,0.65-2.88,2.6-2.86,2.56-6.17.56a9.17,9.17,0,0,0-8.86-.39C311.62,76.17,309.85,79.61,309.87,84Z" transform="translate(-8.77 -6.7)" style="fill:#0c0c0c" />
    <path d="M288.32,83.5c0,2.25-.09,4.5,0,6.74,0.17,3.36,1.42,4.36,4.74,4.05a1.81,1.81,0,0,1,1-.05c1.61,1.29,1.76,3.29,2.27,5.08a2.06,2.06,0,0,1-1.49,2.56c-4.06,1.25-8.15,1.56-12-.6-3.67-2-4-5.73-4.19-9.3-0.2-4.9-.11-9.82,0-14.72,0-2.1-.39-3.39-2.89-3.06-2.18.29-3.32-.7-3.08-3a8.59,8.59,0,0,0,0-2c-0.3-2.29.71-3.37,3-3.06,2.59,0.35,3.26-.91,3-3.16a4.15,4.15,0,0,1,0-.5c0-6.8.8-7.45,7.63-6.46,1.6,0.23,2.05,1.25,2.1,2.6,0.06,1.75.07,3.49,0,5.24,0,1.57.6,2.4,2.21,2.25,6-.54,4.83.66,5,5.75,0,1.71-.8,2.43-2.43,2.39-0.67,0-1.34,0-2,0-2.12-.22-2.82.85-2.77,2.81,0.06,2.16,0,4.33,0,6.49h0Z" transform="translate(-8.77 -6.7)" style="fill:#0c0c0c" />
  </svg>
